<svg xmlns="http://www.w3.org/2000/svg" width="420" height="420" viewBox="0 0 420 420">
<defs>
  <radialGradient id="ground" cx="0.5" cy="0.42" r="0.72">
    <stop offset="0" stop-color="#54211f"/><stop offset="1" stop-color="#150a09"/>
  </radialGradient>
  <radialGradient id="spot" cx="0.5" cy="0.42" r="0.55">
    <stop offset="0" stop-color="#ffd68a" stop-opacity="0.22"/>
    <stop offset="1" stop-color="#ffd68a" stop-opacity="0"/>
  </radialGradient>
  <radialGradient id="emberglow" cx="0.5" cy="0.5" r="0.5">
    <stop offset="0" stop-color="#ff9a3c" stop-opacity="0.30"/>
    <stop offset="1" stop-color="#ff9a3c" stop-opacity="0"/>
  </radialGradient>
  <radialGradient id="flamecore" cx="0.5" cy="0.5" r="0.5">
    <stop offset="0" stop-color="#fff2c8"/><stop offset="0.55" stop-color="#ff9e33" stop-opacity="0.75"/>
    <stop offset="1" stop-color="#ff6a1e" stop-opacity="0"/>
  </radialGradient>
  <linearGradient id="brassgrad" x1="0" y1="0" x2="1" y2="0">
    <stop offset="0" stop-color="#8a6420"/><stop offset="0.45" stop-color="#e6bd64"/>
    <stop offset="1" stop-color="#8a6420"/>
  </linearGradient>
  <linearGradient id="shout" x1="0" y1="1" x2="0" y2="0">
    <stop offset="0" stop-color="#e6bd64" stop-opacity="0.35"/>
    <stop offset="1" stop-color="#e6bd64" stop-opacity="0"/>
  </linearGradient>
  <radialGradient id="edgedark" cx="0.5" cy="0.5" r="0.72">
    <stop offset="0.55" stop-color="#000" stop-opacity="0"/>
    <stop offset="1" stop-color="#000" stop-opacity="0.55"/>
  </radialGradient>
  <filter id="grain" x="-5%" y="-5%" width="110%" height="110%">
    <feTurbulence type="fractalNoise" baseFrequency="0.055" numOctaves="4" seed="11" result="n"/>
    <feColorMatrix in="n" type="saturate" values="0"/>
    <feComponentTransfer><feFuncA type="linear" slope="0.30"/></feComponentTransfer>
    <feComposite in2="SourceGraphic" operator="in"/>
  </filter>
  <filter id="lift" x="-25%" y="-25%" width="150%" height="150%">
    <feDropShadow dx="0" dy="5" stdDeviation="7" flood-color="#000" flood-opacity="0.6"/>
  </filter>
</defs>
<rect width="420" height="420" fill="url(#ground)"/>
<rect width="420" height="420" fill="#c9a15e" filter="url(#grain)" opacity="0.28"/>
<g filter="url(#lift)"><circle cx="210.0" cy="210.0" r="176.4" fill="url(#spot)"/><ellipse cx="210.0" cy="294.0" rx="90.3" ry="69.3" fill="#4a1d2a" stroke="#241a10" stroke-width="4"/><path d="M147.0 285.6 Q75.6 260.4, 67.19999999999999 210.0" fill="none" stroke="#4a1d2a" stroke-width="24" stroke-linecap="round"/><circle cx="65.1" cy="199.5" r="21.0" fill="#efeae0" stroke="#9a948a" stroke-width="3"/><path d="M273.0 285.6 Q344.40000000000003 260.4, 352.8 210.0" fill="none" stroke="#4a1d2a" stroke-width="24" stroke-linecap="round"/><circle cx="354.9" cy="199.5" r="21.0" fill="#efeae0" stroke="#9a948a" stroke-width="3"/><g transform="rotate(-40 354.9 199.5)"><rect x="342" y="141" width="26" height="38" rx="4" fill="#ece3cd" stroke="#8f8878" stroke-width="2"/></g><g transform="rotate(-20 354.9 199.5)"><rect x="342" y="141" width="26" height="38" rx="4" fill="#ece3cd" stroke="#8f8878" stroke-width="2"/></g><g transform="rotate(0 354.9 199.5)"><rect x="342" y="141" width="26" height="38" rx="4" fill="#ece3cd" stroke="#8f8878" stroke-width="2"/></g><g transform="rotate(20 354.9 199.5)"><rect x="342" y="141" width="26" height="38" rx="4" fill="#ece3cd" stroke="#8f8878" stroke-width="2"/></g><circle cx="210.0" cy="258.3" r="77.7" fill="#efeae0" stroke="#b9b2a4" stroke-width="3"/><circle cx="210.0" cy="258.3" r="56.7" fill="#d8d0c0"/><line x1="266.7" y1="258.3" x2="287.7" y2="258.3" stroke="#c2b9a8" stroke-width="4" stroke-linecap="round"/><line x1="263.3" y1="277.7" x2="283.0" y2="284.9" stroke="#c2b9a8" stroke-width="4" stroke-linecap="round"/><line x1="253.4" y1="294.7" x2="269.5" y2="308.2" stroke="#c2b9a8" stroke-width="4" stroke-linecap="round"/><line x1="238.3" y1="307.4" x2="248.9" y2="325.6" stroke="#c2b9a8" stroke-width="4" stroke-linecap="round"/><line x1="219.8" y1="314.1" x2="223.5" y2="334.8" stroke="#c2b9a8" stroke-width="4" stroke-linecap="round"/><line x1="200.2" y1="314.1" x2="196.5" y2="334.8" stroke="#c2b9a8" stroke-width="4" stroke-linecap="round"/><line x1="181.7" y1="307.4" x2="171.2" y2="325.6" stroke="#c2b9a8" stroke-width="4" stroke-linecap="round"/><line x1="166.6" y1="294.7" x2="150.5" y2="308.2" stroke="#c2b9a8" stroke-width="4" stroke-linecap="round"/><line x1="156.7" y1="277.7" x2="137.0" y2="284.9" stroke="#c2b9a8" stroke-width="4" stroke-linecap="round"/><line x1="153.3" y1="258.3" x2="132.3" y2="258.3" stroke="#c2b9a8" stroke-width="4" stroke-linecap="round"/><line x1="156.7" y1="238.9" x2="137.0" y2="231.7" stroke="#c2b9a8" stroke-width="4" stroke-linecap="round"/><line x1="166.6" y1="221.9" x2="150.5" y2="208.4" stroke="#c2b9a8" stroke-width="4" stroke-linecap="round"/><line x1="181.6" y1="209.2" x2="171.1" y2="191.0" stroke="#c2b9a8" stroke-width="4" stroke-linecap="round"/><line x1="200.2" y1="202.5" x2="196.5" y2="181.8" stroke="#c2b9a8" stroke-width="4" stroke-linecap="round"/><line x1="219.8" y1="202.5" x2="223.5" y2="181.8" stroke="#c2b9a8" stroke-width="4" stroke-linecap="round"/><line x1="238.3" y1="209.2" x2="248.8" y2="191.0" stroke="#c2b9a8" stroke-width="4" stroke-linecap="round"/><line x1="253.4" y1="221.9" x2="269.5" y2="208.4" stroke="#c2b9a8" stroke-width="4" stroke-linecap="round"/><line x1="263.3" y1="238.9" x2="283.0" y2="231.7" stroke="#c2b9a8" stroke-width="4" stroke-linecap="round"/><circle cx="149.1" cy="165.9" r="16.8" fill="#a8321f"/><circle cx="137.3" cy="178.5" r="15.1" fill="#a8321f"/><circle cx="125.6" cy="191.1" r="13.4" fill="#a8321f"/><circle cx="113.8" cy="203.7" r="11.8" fill="#a8321f"/><circle cx="136.5" cy="153.3" r="14.3" fill="#c33f26"/><circle cx="270.9" cy="165.9" r="16.8" fill="#a8321f"/><circle cx="282.7" cy="178.5" r="15.1" fill="#a8321f"/><circle cx="294.4" cy="191.1" r="13.4" fill="#a8321f"/><circle cx="306.2" cy="203.7" r="11.8" fill="#a8321f"/><circle cx="283.5" cy="153.3" r="14.3" fill="#c33f26"/><circle cx="210.0" cy="174.3" r="65.1" fill="#f2ece0" stroke="#a49c8e" stroke-width="3"/><path d="M197.4 134.4 L161.7 149.1 L188.2 173.0" fill="#8e2f2b"/><circle cx="185.6" cy="158.8" r="10.1" fill="#f2ece0" stroke="#1a1512" stroke-width="3"/><circle cx="185.6" cy="158.8" r="4.6" fill="#1a1512"/><path d="M222.6 134.4 L258.3 149.1 L231.8 173.0" fill="#8e2f2b"/><circle cx="234.4" cy="158.8" r="10.1" fill="#f2ece0" stroke="#1a1512" stroke-width="3"/><circle cx="234.4" cy="158.8" r="4.6" fill="#1a1512"/><circle cx="210.0" cy="185.6" r="12.6" fill="#c0392b" stroke="#7d2018" stroke-width="2"/><path d="M165.9 197.39999999999998 Q210.0 237.29999999999998, 254.1 197.39999999999998" fill="none" stroke="#8e2f2b" stroke-width="14" stroke-linecap="round"/><path d="M175.56 202.44 Q210.0 226.8, 244.44 202.44" fill="#2a1010"/><rect x="181" y="207" width="8" height="11" fill="#f2ece0"/><rect x="193" y="207" width="8" height="11" fill="#f2ece0"/><rect x="205" y="207" width="8" height="11" fill="#f2ece0"/><rect x="217" y="207" width="8" height="11" fill="#f2ece0"/><rect x="228" y="207" width="8" height="11" fill="#f2ece0"/></g>
<rect width="420" height="420" fill="url(#edgedark)"/>
</svg>