<svg xmlns="http://www.w3.org/2000/svg" width="420" height="420" viewBox="0 0 420 420">
<defs>
  <radialGradient id="ground" cx="0.5" cy="0.42" r="0.72">
    <stop offset="0" stop-color="#4a3820"/><stop offset="1" stop-color="#0f0c09"/>
  </radialGradient>
  <radialGradient id="spot" cx="0.5" cy="0.42" r="0.55">
    <stop offset="0" stop-color="#ffd68a" stop-opacity="0.22"/>
    <stop offset="1" stop-color="#ffd68a" stop-opacity="0"/>
  </radialGradient>
  <radialGradient id="emberglow" cx="0.5" cy="0.5" r="0.5">
    <stop offset="0" stop-color="#ff9a3c" stop-opacity="0.30"/>
    <stop offset="1" stop-color="#ff9a3c" stop-opacity="0"/>
  </radialGradient>
  <radialGradient id="flamecore" cx="0.5" cy="0.5" r="0.5">
    <stop offset="0" stop-color="#fff2c8"/><stop offset="0.55" stop-color="#ff9e33" stop-opacity="0.75"/>
    <stop offset="1" stop-color="#ff6a1e" stop-opacity="0"/>
  </radialGradient>
  <linearGradient id="brassgrad" x1="0" y1="0" x2="1" y2="0">
    <stop offset="0" stop-color="#8a6420"/><stop offset="0.45" stop-color="#e6bd64"/>
    <stop offset="1" stop-color="#8a6420"/>
  </linearGradient>
  <linearGradient id="shout" x1="0" y1="1" x2="0" y2="0">
    <stop offset="0" stop-color="#e6bd64" stop-opacity="0.35"/>
    <stop offset="1" stop-color="#e6bd64" stop-opacity="0"/>
  </linearGradient>
  <radialGradient id="edgedark" cx="0.5" cy="0.5" r="0.72">
    <stop offset="0.55" stop-color="#000" stop-opacity="0"/>
    <stop offset="1" stop-color="#000" stop-opacity="0.55"/>
  </radialGradient>
  <filter id="grain" x="-5%" y="-5%" width="110%" height="110%">
    <feTurbulence type="fractalNoise" baseFrequency="0.055" numOctaves="4" seed="11" result="n"/>
    <feColorMatrix in="n" type="saturate" values="0"/>
    <feComponentTransfer><feFuncA type="linear" slope="0.30"/></feComponentTransfer>
    <feComposite in2="SourceGraphic" operator="in"/>
  </filter>
  <filter id="lift" x="-25%" y="-25%" width="150%" height="150%">
    <feDropShadow dx="0" dy="5" stdDeviation="7" flood-color="#000" flood-opacity="0.6"/>
  </filter>
</defs>
<rect width="420" height="420" fill="url(#ground)"/>
<rect width="420" height="420" fill="#c9a15e" filter="url(#grain)" opacity="0.28"/>
<g filter="url(#lift)"><ellipse cx="210.0" cy="260.4" rx="100.8" ry="84.0" fill="#5e2b30" stroke="#241a10" stroke-width="4"/><circle cx="193.9" cy="256.5" r="2.6" fill="#2a1416" opacity="0.63"/><circle cx="242.4" cy="289.4" r="4.1" fill="#2a1416" opacity="0.72"/><circle cx="225.0" cy="240.1" r="3.5" fill="#2a1416" opacity="0.52"/><circle cx="166.5" cy="222.0" r="3.0" fill="#2a1416" opacity="0.57"/><circle cx="208.2" cy="291.7" r="5.5" fill="#2a1416" opacity="0.84"/><circle cx="237.4" cy="287.7" r="7.0" fill="#2a1416" opacity="0.52"/><circle cx="220.7" cy="255.8" r="5.5" fill="#2a1416" opacity="0.71"/><circle cx="202.4" cy="234.7" r="3.4" fill="#2a1416" opacity="0.80"/><circle cx="224.7" cy="215.2" r="3.8" fill="#2a1416" opacity="0.71"/><circle cx="224.5" cy="213.9" r="4.5" fill="#2a1416" opacity="0.51"/><circle cx="242.7" cy="281.0" r="5.1" fill="#2a1416" opacity="0.55"/><circle cx="236.4" cy="295.7" r="6.9" fill="#2a1416" opacity="0.73"/><circle cx="192.1" cy="279.1" r="3.0" fill="#2a1416" opacity="0.57"/><circle cx="221.9" cy="281.7" r="3.5" fill="#2a1416" opacity="0.90"/><circle cx="292.0" cy="249.7" r="4.0" fill="#2a1416" opacity="0.68"/><circle cx="133.6" cy="281.8" r="6.4" fill="#2a1416" opacity="0.77"/><circle cx="213.5" cy="258.8" r="6.8" fill="#2a1416" opacity="0.63"/><circle cx="255.2" cy="249.8" r="5.2" fill="#2a1416" opacity="0.82"/><circle cx="187.0" cy="310.3" r="2.8" fill="#2a1416" opacity="0.68"/><circle cx="144.3" cy="222.2" r="6.0" fill="#2a1416" opacity="0.83"/><circle cx="179.4" cy="299.1" r="5.1" fill="#2a1416" opacity="0.76"/><circle cx="186.6" cy="256.1" r="4.2" fill="#2a1416" opacity="0.68"/><line x1="210.0" y1="197.4" x2="210.0" y2="336.0" stroke="#3d1c20" stroke-width="5" stroke-linecap="round"/><circle cx="210.0" cy="231.0" r="7.1" fill="#c2933c" stroke="#6a4a17" stroke-width="2"/><circle cx="210.0" cy="268.8" r="7.1" fill="#c2933c" stroke="#6a4a17" stroke-width="2"/><circle cx="210.0" cy="306.6" r="7.1" fill="#c2933c" stroke="#6a4a17" stroke-width="2"/><ellipse cx="107.1" cy="277.2" rx="21.0" ry="48.3" fill="#5e2b30" stroke="#3d1c20" stroke-width="3" transform="rotate(-22 107.1 277.2)"/><ellipse cx="312.9" cy="277.2" rx="21.0" ry="48.3" fill="#5e2b30" stroke="#3d1c20" stroke-width="3" transform="rotate(22 312.9 277.2)"/><circle cx="210.0" cy="168.0" r="44.1" fill="#ab8a63" stroke="#3a2a1a" stroke-width="3"/><circle cx="210.0" cy="165.9" r="56.7" fill="#4a2226" stroke="#2a1416" stroke-width="4"/><path d="M157.5 157.5 Q210.0 107.10000000000001, 262.5 157.5 Z" fill="#3a1a1e" stroke="#201013" stroke-width="3"/><circle cx="210.0" cy="144.9" r="10.9" fill="#c2933c" stroke="#6a4a17" stroke-width="2"/><ellipse cx="312.9" cy="302.4" rx="16.0" ry="23.1" fill="#ded0ac" stroke="#8d7f5f" stroke-width="2" transform="rotate(-16 312.9 302.4)"/><line x1="312.9" y1="294.0" x2="312.9" y2="312.9" stroke="#8d7f5f" stroke-width="2" stroke-linecap="round"/><ellipse cx="312.9" cy="307.4" rx="16.0" ry="23.1" fill="#ded0ac" stroke="#8d7f5f" stroke-width="2" transform="rotate(-2 312.9 307.4)"/><line x1="312.9" y1="299.0" x2="312.9" y2="317.9" stroke="#8d7f5f" stroke-width="2" stroke-linecap="round"/><ellipse cx="312.9" cy="312.5" rx="16.0" ry="23.1" fill="#ded0ac" stroke="#8d7f5f" stroke-width="2" transform="rotate(12 312.9 312.5)"/><line x1="312.9" y1="304.1" x2="312.9" y2="323.0" stroke="#8d7f5f" stroke-width="2" stroke-linecap="round"/></g>
<rect width="420" height="420" fill="url(#edgedark)"/>
</svg>